<svg xmlns="http://www.w3.org/2000/svg" viewBox="0 0 248.87 60"><path d="M.18 2.18L0 2.02V.84L.18.68C2.86.8 4.92.87 6.37.87c.55 0 3.71-.07 7.49-.19 1.22 0 2.1-.05 2.65-.05a15.78 15.78 0 0 1 5 .64 5.81 5.81 0 0 1 3 2.24 6.16 6.16 0 0 1 1.13 3.64 7.38 7.38 0 0 1-1.88 4.83q-1.87 2.22-6.09 3.19a25.26 25.26 0 0 1 4.17.67 8 8 0 0 1 2.84 1.38 6.36 6.36 0 0 1 1.88 2.4 7.82 7.82 0 0 1 .7 3.42 10.84 10.84 0 0 1-.47 3.09 9.2 9.2 0 0 1-1.73 3.12 11.75 11.75 0 0 1-3 2.65 13.28 13.28 0 0 1-3.65 1.59 18.3 18.3 0 0 1-4.62.49c-.38 0-2.5 0-4.38-.11l-3.37-.07c-1.07 0-2.37.06-3.92.18l-.19-.18v-.78l.19-.23a7 7 0 0 0 1.57-.84 18 18 0 0 0 .34-4.15q.14-3.91.13-6V5.05a12.1 12.1 0 0 0-.13-1.55 1.13 1.13 0 0 0-.27-.66 1.41 1.41 0 0 0-.53-.32 5.51 5.51 0 0 0-1.16-.22zm8.42 12.3c.78.07 1.66.1 2.65.1 3.23 0 6.48-.58 7.75-1.74a6.12 6.12 0 0 0 1.89-4.75 5.83 5.83 0 0 0-.72-3 4.68 4.68 0 0 0-2.29-1.89 17.44 17.44 0 0 0-5.23-.66 18.3 18.3 0 0 0-3.84.36c-.14 1.4-.21 3.86-.21 7.36zm0 17.09a16.36 16.36 0 0 0 3.71.42c2.23 0 5-.36 6.25-1.07a6.68 6.68 0 0 0 2.8-3 9.66 9.66 0 0 0 .9-4.16 7.6 7.6 0 0 0-1.91-5.41c-1.27-1.35-5-2-9.26-2-.7 0-1.55 0-2.53.09v8zm22.32 2.33v-1.11l.3-.22h.12a17.49 17.49 0 0 0 2.19-.17 1.43 1.43 0 0 0 .62-.21 1.14 1.14 0 0 0 .23-.58 16 16 0 0 0 .13-2.38V13.99c0-1.31-.05-2.17-.1-2.55a1.25 1.25 0 0 0-.19-.64 1 1 0 0 0-.53-.24 14.88 14.88 0 0 0-2.33-.19h-.09l-.29-.25V8.97l.3-.26h.1c2.18.09 3.89.14 5.1.14s3.18 0 5.46-.12h1.86c3.12 0 5.19.56 6.32 1.69a5.5 5.5 0 0 1 1.69 4 6.24 6.24 0 0 1-.82 3 7.33 7.33 0 0 1-2.41 2.53 12 12 0 0 1-4 1.48c.35.47.87 1.15 1.57 2l2.55 3.3c.82 1.09 1.71 2.24 2.65 3.45a10.74 10.74 0 0 0 1.75 2 2.15 2.15 0 0 0 .63.26 6.12 6.12 0 0 0 .9 0h.1l.29.28v1l-.32.32h-.12a16.72 16.72 0 0 0-2-.1c-.84 0-1.77 0-2.76.1h-.13l-.08-.1c-.83-1-2.14-2.7-3.9-5.12a100.14 100.14 0 0 0-6.3-7.81l-.1-.11.29-.86h1.63a7.18 7.18 0 0 0 4.7-1.4 4.69 4.69 0 0 0 1.66-3.85 3.86 3.86 0 0 0-1.47-3.31A6.78 6.78 0 0 0 42 10.35a11.93 11.93 0 0 0-3.37.46 45.26 45.26 0 0 0-.2 6.39v11.56c0 1.31 0 2.16.1 2.53a1.46 1.46 0 0 0 .2.65 1.21 1.21 0 0 0 .54.25 12.37 12.37 0 0 0 2.32.19h.08l.31.22v1.11l-.29.29h-.11l-3.16-.11h-2c-.37 0-2.09 0-5.12.14h-.11zm38.42.8a16 16 0 0 1-4.42-.56 8.54 8.54 0 0 1-3.07-1.49 5.87 5.87 0 0 1-1.63-2 7.47 7.47 0 0 1-.63-2.42 41.27 41.27 0 0 1-.15-4.13V13.99c0-1.32-.05-2.17-.1-2.55a1.39 1.39 0 0 0-.18-.64 1.07 1.07 0 0 0-.52-.24 14.45 14.45 0 0 0-2.28-.19h-.09l-.29-.26v-1.1l.29-.26h.1c2.89.09 4.58.14 5 .14s2.09-.05 5-.14h.1l.3.26v1.1l-.29.26h-.09c-.8 0-1.43.06-1.86.11a2.11 2.11 0 0 0-.85.22c-.07.05-.21.21-.28.73a16.18 16.18 0 0 0-.09 2v9.59c0 1.82 0 3.18.11 4a7.15 7.15 0 0 0 .48 2.1 3.78 3.78 0 0 0 1.08 1.44 5.82 5.82 0 0 0 2.12 1 12 12 0 0 0 3.2.39 11.88 11.88 0 0 0 3.54-.52 4.62 4.62 0 0 0 3.54-4 29.93 29.93 0 0 0 .27-4.58v-5.43c0-.91 0-2.17-.05-3.77a10.61 10.61 0 0 0-.19-2.66.85.85 0 0 0-.48-.42 9.51 9.51 0 0 0-2.4-.2h-.1l-.28-.28v-1l.28-.32h.12c1.72.09 3.12.14 4.16.14.88 0 2.27-.05 4.13-.14h.1l.32.29v1.07l-.31.27h-.09a17.86 17.86 0 0 0-2.11.13 1.11 1.11 0 0 0-.58.23.9.9 0 0 0-.23.47 16.36 16.36 0 0 0-.12 2.27l-.06 3.95v5.34a41.81 41.81 0 0 1-.24 5.08 6.91 6.91 0 0 1-1.15 3.15 8.22 8.22 0 0 1-2.08 2 9.1 9.1 0 0 1-3.08 1.27 16.85 16.85 0 0 1-3.86.44m29.88-.03a15.08 15.08 0 0 1-10.48-3.67 12.44 12.44 0 0 1-4-9.61 12.71 12.71 0 0 1 2-7.14 12.47 12.47 0 0 1 5.32-4.57 17.65 17.65 0 0 1 7.39-1.51 22.35 22.35 0 0 1 4.68.5A20 20 0 0 1 108 9.89h.06l.25.34-.06.13a22.51 22.51 0 0 0-.73 4.8v.08l-.25.28h-1l-.28-.28-.17-3a9.54 9.54 0 0 0-2.94-1.48 12.39 12.39 0 0 0-3.71-.56 10.79 10.79 0 0 0-5.21 1.25 8.65 8.65 0 0 0-3.55 3.59 13.41 13.41 0 0 0 .22 11.84 10.27 10.27 0 0 0 4.08 4 12.61 12.61 0 0 0 6.06 1.4 14.19 14.19 0 0 0 2.95-.3 9.86 9.86 0 0 0 4.15-1.77l.19-.13.54.66-.76 1.86h-.08a18.43 18.43 0 0 1-8.45 2m12.38-.7v-.77l.23-.29h.05a12.24 12.24 0 0 0 1.13-.62s.08-.49.16-2.9c.07-1.95.1-3.46.1-4.49V12.27a6.34 6.34 0 0 0-.12-1.12 1.07 1.07 0 0 0-.15-.4.7.7 0 0 0-.27-.16 3.26 3.26 0 0 0-.81-.15l-1.41-.11-.28-.25V8.97l.29-.26h.1c4 .07 6.59.11 7.71.11 3.83 0 7.28 0 10.26-.11h.14l.23.32v.12a28.71 28.71 0 0 0-.71 5.27l-.22.3h-1.09l-.32-.28v-.39a17.64 17.64 0 0 0-.2-2.67 9.65 9.65 0 0 0-2.87-.57c-1.29-.1-2.27-.15-2.92-.15-.87 0-2 .06-3.31.18l-.06 2.59-.1 6.54c1.16.06 2.25.09 3.24.09s2 0 2.68-.1a4.11 4.11 0 0 0 1.17-.19.46.46 0 0 0 .17-.3 5.84 5.84 0 0 0 .16-1.1l.08-1.18.28-.28h1l.29.29v.11c0 1.28-.05 2.56-.09 3.85l.09 4-.29.29h-1l-.28-.28-.13-1.14c-.13-1-.19-1.32-.22-1.42a.51.51 0 0 0-.23-.28 3.2 3.2 0 0 0-1.19-.24c-.69-.07-1.66-.1-2.88-.1-.64 0-1.59 0-2.87.07 0 1-.08 2.57-.08 4.69 0 2.28 0 4 .08 5.18h3c2.82 0 4.61 0 5.32-.11a6.49 6.49 0 0 0 1.86-.45c.11-.3.26-.88.48-1.74s.37-1.57.4-1.81v-.11l.33-.23h1l.33.28v.15a22.12 22.12 0 0 0-.31 2.6c-.1 1.24-.15 2.32-.15 3.2v.09l-.26.3h-.12c-2.22-.07-5.18-.11-8.78-.11h-4.78c-1.1 0-2.27 0-3.46.14h-.12zm63.92-4.06l-.88 2.18a23.28 23.28 0 0 1-10.88 2.64q-8.29 0-13.47-4.8a16.31 16.31 0 0 1-5.18-12.56 16.81 16.81 0 0 1 2.58-9.34 16.08 16.08 0 0 1 6.82-6 22.24 22.24 0 0 1 9.52-2 27.87 27.87 0 0 1 6 .66 24.57 24.57 0 0 1 5 1.57l.22.23a30.91 30.91 0 0 0-1 6.49l-.16.19h-1.08l-.18-.19-.23-4a12.31 12.31 0 0 0-4.06-2.12 16 16 0 0 0-4.95-.76 14.06 14.06 0 0 0-6.95 1.7 11.64 11.64 0 0 0-4.78 4.92 16.75 16.75 0 0 0-1.7 7.88 16.37 16.37 0 0 0 2 8.23 13.84 13.84 0 0 0 5.45 5.44 16.57 16.57 0 0 0 8.07 1.9 19.25 19.25 0 0 0 3.93-.4 15 15 0 0 0 3.14-1 14.07 14.07 0 0 0 2.4-1.43zm2.87 4.06v-.77l.23-.29h.05a7.89 7.89 0 0 0 1.12-.63s.07-.36.16-2.11c.07-1.42.11-3.16.11-5.16V13.99c0-1.32 0-2.17-.1-2.55a1.39 1.39 0 0 0-.18-.64 1.07 1.07 0 0 0-.52-.24 14.45 14.45 0 0 0-2.28-.19h-.09l-.3-.25V8.97l.31-.26h.09c2.89.09 4.58.14 5 .14s2.09-.05 5-.14h.1l.3.26v1.11l-.29.25h-.09c-.8 0-1.43.06-1.86.11a2.11 2.11 0 0 0-.85.22c-.07.05-.21.21-.28.73a16.18 16.18 0 0 0-.09 2v15.84l.08 2.8h3.34c2.84 0 4.63 0 5.33-.11a6.79 6.79 0 0 0 1.88-.45 17.08 17.08 0 0 0 .5-1.88 17.75 17.75 0 0 0 .37-1.79v-.11l.3-.27h1.07l.28.32v.12c-.09.46-.19 1.36-.29 2.7s-.15 2.42-.15 3.25v.1l-.29.29h-.1c-2.22-.07-5.17-.11-8.77-.11h-5.13c-1.16 0-2.36 0-3.57.14h-.11zm46.76.29c-1.23-.11-2.35-.16-3.34-.16l-5.83.16h-.1l-.29-.29v-1.12l.28-.29h.1a12.74 12.74 0 0 0 2.4-.16c.27-.07.31-.21.31-.36a2.58 2.58 0 0 0-.23-.93l-2.09-5.2h-9.85l-1.85 4.35a5 5 0 0 0-.49 1.67c0 .13 0 .3.33.43a7.67 7.67 0 0 0 2.29.2h.09l.31.28v1.13l-.29.3h-.11c-1.5-.1-2.83-.14-4-.14s-2.58 0-3.88.14h-.11l-.32-.29v-1.14l.31-.28h.09a6.66 6.66 0 0 0 1.59-.12 1.12 1.12 0 0 0 .54-.38 13.15 13.15 0 0 0 1.13-2.18l1.85-4 4.78-10.82q1.35-3.18 2.68-6.36l.07-.16h1.47l8.57 20.16c.3.66.63 1.39 1 2.17a6.52 6.52 0 0 0 .74 1.32 1.42 1.42 0 0 0 .45.27 5.91 5.91 0 0 0 1.38.11h.1l.28.29v1.12l-.29.3zm-9.69-10.36l-4-9.71-4.1 9.71zm13.72 10.07v-1.11l.3-.22h.08a16.48 16.48 0 0 0 2.16-.17 1.38 1.38 0 0 0 .59-.21.93.93 0 0 0 .21-.52 11.4 11.4 0 0 0 .12-1.93v-6.32c-.23-.52-1.09-2-2.54-4.42l-1.52-2.58c-.49-.79-1.11-1.73-1.85-2.78a15.51 15.51 0 0 0-1.69-2.12 2.37 2.37 0 0 0-.85-.61 8.56 8.56 0 0 0-1.72-.09h-.11l-.3-.3v-1l.29-.29 5.15-.85.08.06a6 6 0 0 1 1.08 1 17.61 17.61 0 0 1 1.48 2.13c.64 1 1.47 2.47 2.48 4.3s1.84 3.42 2.7 5.13l1.56-2.48 2-3.37 3.8-6.52h.17a11.57 11.57 0 0 0 1.3.07c.27 0 .67 0 1.21-.07h.12l.3.3v.53l-.07.07c-.58.64-1.49 1.81-2.71 3.49s-2.14 3-2.74 4-1.34 2.15-2.22 3.6a17 17 0 0 0-1.41 2.55 3.38 3.38 0 0 0-.12 1v5.21a17.19 17.19 0 0 0 .11 2.1 1.52 1.52 0 0 0 .2.66 1.07 1.07 0 0 0 .51.24 13.69 13.69 0 0 0 2.28.18h.08l.3.22v1.11l-.29.29h-.1l-3.1-.11h-2c-.37 0-2 0-5 .14h-.11zm16.72.52a2.93 2.93 0 0 1-1.46-.39 2.82 2.82 0 0 1-1.06-1.08 3.91 3.91 0 0 1-.37-1.63 2.22 2.22 0 0 1 .37-1.19 2.82 2.82 0 0 1 1.06-1.08 2.93 2.93 0 0 1 1.46-.39 2.89 2.89 0 0 1 2.88 2.88 2.78 2.78 0 0 1-.39 1.44 2.81 2.81 0 0 1-1.05 1.06 2.9 2.9 0 0 1-1.44.38m0-5.22a2.39 2.39 0 0 0-1.19.32 2.25 2.25 0 0 0-.86.87 2.34 2.34 0 0 0 0 2.31 2.33 2.33 0 0 0 3.21.87 2.22 2.22 0 0 0 .86-.86 2.3 2.3 0 0 0 .31-1.17 2.28 2.28 0 0 0-.31-1.17 2.36 2.36 0 0 0-.86-.86 2.3 2.3 0 0 0-1.17-.31m1.15 3.86a1 1 0 0 1-.34 0 .57.57 0 0 1-.25-.24 5.28 5.28 0 0 1-.28-.64 1.61 1.61 0 0 0-.16-.33.33.33 0 0 0-.13-.11.68.68 0 0 0-.27 0h-.11v.86a1 1 0 0 0 0 .19h.36v.31h-1.36v-.31h.34v-2.36a.67.67 0 0 0 0-.21.76.76 0 0 0-.26 0h-.09v-.32h1.35a2.78 2.78 0 0 1 .52 0 1.32 1.32 0 0 1 .39.15.84.84 0 0 1 .22.27.85.85 0 0 1-.15 1 1 1 0 0 1-.41.25.92.92 0 0 1 .21.25 3.3 3.3 0 0 1 .25.48 2 2 0 0 0 .22.42.3.3 0 0 0 .23.07h.09v.31zm-1.43-1.75a1.09 1.09 0 0 0 .65-.15.48.48 0 0 0 .19-.43c0-.38-.2-.56-.62-.56h-.31v1.17z" fill="#231f20"/><path d="M1.84 53.42h86m67.1 0h88" fill="none" stroke="#231f20" stroke-miterlimit="10" stroke-width="1.5"/><text transform="translate(94.74 58.06)" font-size="14" fill="#0071ce" font-family="OpenSans-Bold,Open Sans" font-weight="700" letter-spacing=".2em">JAPAN</text></svg>